# xmcd CD database file
#
# Track frame offsets:
#	150
#	16725
#	33560
#	55400
#	80190
#	102767
#	120737
#	139810
#	156402
#	175452
#	193922
#	222115
#	248357
#	265070
#	282775
#
# Disc length: 4083 seconds
#
# Revision: 0
# Processed by: cddbd v1.5.1PL0 Copyright (c) Steve Scherf et al.
# Submitted via: CDex 1.51
#
DISCID=d60ff10f
DTITLE=Various Artist - The Works Of Tatsuro Yamashita vol.1
DYEAR=2004
DGENRE=Pop
TTITLE0=WOMAN
TTITLE1=愛のセレナーデ
TTITLE2=酔いしれてDeja Vu
TTITLE3=L.A. BABE
TTITLE4=DREAM IN THE STREET
TTITLE5=恋のブギ・ウギ・トレイン
TTITLE6=愛・イッツ・マイ・ライフ
TTITLE7=偽りのDJ
TTITLE8=センチメンタル・ボーイ
TTITLE9=バカンスの終りに
TTITLE10=メドレー：若いってことは〜愛はハーモニー〜若いってことは
TTITLE11=花のように
TTITLE12=兄妹のテーマ
TTITLE13=ゴーイング・バック
TTITLE14=フェアリー
EXTD=YEAR: 2004
EXTT0=
EXTT1=
EXTT2=
EXTT3=
EXTT4=
EXTT5=
EXTT6=
EXTT7=
EXTT8=
EXTT9=
EXTT10=
EXTT11=
EXTT12=
EXTT13=
EXTT14=
PLAYORDER=
